<svg version="1.0" xmlns="http://www.w3.org/2000/svg" width="1500px" height="1500px" viewBox="0 0 8000 8000">
<g id="layer101" fill="#59606d" stroke="none">
 <path d="M5565 10785 c-475 -47 -889 -146 -1320 -313 -390 -152 -767 -361 -1103 -611 -273 -204 -590 -497 -789 -732 -670 -789 -1063 -1738 -1144 -2762 -15 -197 -6 -727 15 -902 27 -218 66 -431 112 -619 301 -1220 1071 -2274 2144 -2936 182 -112 561 -303 740 -373 398 -156 818 -261 1250 -313 208 -25 730 -30 945 -10 515 49 969 159 1415 343 1305 538 2326 1647 2749 2988 147 467 208 849 218 1356 8 403 -14 663 -83 1024 -279 1448 -1232 2703 -2554 3365 -559 280 -1101 434 -1735 495 -196 18 -673 18 -860 0z m875 -131 c904 -88 1735 -419 2440 -973 989 -775 1622 -1905 1765 -3150 35 -306 35 -748 0 -1056 -120 -1055 -587 -2025 -1340 -2779 -654 -656 -1496 -1106 -2405 -1285 -509 -100 -1108 -112 -1618 -31 -677 108 -1331 364 -1891 742 -776 523 -1382 1271 -1729 2133 -308 767 -406 1600 -286 2440 64 446 212 923 419 1349 507 1043 1389 1865 2465 2296 257 103 532 185 826 244 227 46 434 72 729 90 111 7 469 -5 625 -20z"/>
 <path d="M5660 10554 c-19 -2 -80 -9 -135 -15 -320 -33 -702 -117 -1000 -219 -938 -321 -1748 -941 -2303 -1760 -294 -435 -515 -923 -640 -1415 -69 -269 -109 -508 -132 -770 -13 -154 -13 -585 0 -740 80 -947 424 -1797 1028 -2536 406 -496 962 -935 1530 -1206 462 -220 935 -358 1472 -429 188 -25 717 -31 927 -10 758 73 1456 313 2073 714 626 407 1151 971 1515 1627 293 528 478 1116 547 1740 18 162 18 768 0 930 -33 300 -110 663 -197 935 -439 1368 -1528 2470 -2889 2924 -220 74 -433 128 -647 165 -324 57 -400 63 -769 66 -190 2 -361 1 -380 -1z m720 -129 c1101 -96 2112 -589 2868 -1399 573 -613 961 -1380 1116 -2206 95 -502 100 -1051 15 -1560 -160 -956 -644 -1853 -1358 -2513 -486 -450 -1037 -773 -1665 -977 -870 -281 -1869 -278 -2736 9 -858 285 -1583 796 -2135 1506 -175 225 -333 480 -469 755 -234 473 -363 914 -433 1480 -25 203 -25 750 0 962 37 312 106 633 193 894 176 534 465 1055 816 1471 794 941 1890 1497 3128 1586 135 10 505 5 660 -8z"/>
 <path d="M3000 7860 l0 -60 3000 0 3000 0 0 60 0 60 -3000 0 -3000 0 0 -60z"/>
 <path d="M4685 7305 c-25 -24 -25 -25 -25 -223 0 -260 -9 -246 167 -250 185 -5 177 -13 181 208 3 151 1 174 -14 191 -20 23 -86 26 -103 5 -8 -9 -25 -12 -56 -8 -75 8 -85 -9 -85 -139 0 -98 2 -110 22 -129 17 -16 35 -20 85 -20 l62 0 3 130 c4 184 22 169 26 -20 l3 -150 -26 -10 c-34 -13 -146 -13 -179 0 l-26 10 0 179 c0 210 -5 201 109 201 69 0 71 1 71 25 0 25 0 25 -95 25 -88 0 -98 -2 -120 -25z m175 -231 c0 -94 0 -95 -22 -88 -33 9 -32 8 -36 88 -5 87 8 122 38 106 18 -10 20 -22 20 -106z"/>
 <path d="M5110 7300 l0 -30 68 0 c87 0 102 -14 102 -91 0 -64 -11 -79 -57 -79 -41 0 -86 -22 -107 -52 -20 -29 -21 -129 -2 -167 20 -39 55 -51 146 -51 l80 0 0 30 0 30 -66 0 c-91 0 -104 9 -104 70 0 57 22 80 78 80 76 0 106 47 100 158 -3 69 -6 76 -36 103 -30 27 -38 29 -117 29 l-85 0 0 -30z"/>
 <path d="M5523 7312 c-35 -27 -43 -65 -43 -208 l0 -134 35 0 35 0 0 131 c0 72 5 139 10 150 8 14 21 19 55 19 34 0 47 -5 55 -19 5 -11 10 -78 10 -150 l0 -131 35 0 35 0 0 179 0 180 -102 0 c-83 0 -107 -3 -125 -17z"/>
 <path d="M5840 7150 l0 -180 83 4 c45 3 87 5 92 5 6 1 27 -2 47 -5 53 -9 83 1 96 31 8 16 12 82 12 175 l0 150 -30 0 -30 0 0 -127 c0 -159 -4 -175 -39 -171 l-26 3 -3 148 -3 147 -34 0 -35 0 0 -145 c0 -126 -2 -146 -16 -152 -9 -3 -24 -2 -33 4 -13 8 -16 34 -19 152 l-3 141 -29 0 -30 0 0 -180z"/>
 <path d="M6360 7180 l0 -150 -55 0 c-54 0 -55 0 -55 -30 l0 -30 90 0 90 0 0 149 0 150 53 3 c48 3 52 5 55 31 l3 27 -90 0 -91 0 0 -150z"/>
 <path d="M6679 7301 c-29 -29 -29 -30 -29 -151 0 -121 0 -122 29 -151 27 -27 35 -29 100 -29 l71 0 0 -70 0 -70 35 0 35 0 0 249 0 249 -106 1 c-104 1 -106 1 -135 -28z m169 -153 l3 -118 -50 0 c-82 0 -81 -2 -81 120 0 77 4 110 13 114 6 3 35 4 62 3 l50 -2 3 -117z"/>
 <path d="M7051 7311 c-40 -40 -34 -147 10 -187 15 -13 40 -20 90 -22 63 -4 69 -6 69 -26 0 -37 -19 -46 -97 -46 l-73 0 0 -30 0 -30 80 0 c140 0 160 24 160 196 0 86 3 104 15 104 10 0 15 10 15 29 l0 29 -125 1 c-109 1 -127 -1 -144 -18z m167 -98 l3 -53 -38 0 c-79 0 -104 24 -89 85 6 25 10 26 64 23 l57 -3 3 -52z"/>
 <path d="M6360 6860 c0 -28 3 -30 35 -30 32 0 35 2 35 30 0 28 -3 30 -35 30 -32 0 -35 -2 -35 -30z"/>
 <path d="M4310 5981 l0 -198 -96 -199 c-132 -273 -126 -244 -51 -244 l62 0 76 170 76 170 75 -168 74 -167 62 -3 61 -3 -109 227 -110 226 0 194 0 194 -60 0 -60 0 0 -199z"/>
 <path d="M4883 6161 c-30 -14 -48 -32 -64 -62 -19 -39 -21 -58 -21 -219 0 -211 10 -243 87 -280 40 -19 58 -21 154 -18 118 3 141 12 185 72 20 26 21 41 21 226 0 185 -1 200 -21 226 -45 61 -66 69 -187 72 -94 2 -119 -1 -154 -17z m239 -101 c16 -19 18 -44 18 -180 0 -200 -2 -204 -113 -205 -117 0 -117 0 -117 205 0 207 4 213 135 205 46 -3 64 -8 77 -25z"/>
 <path d="M5644 6161 c-48 -29 -54 -62 -54 -287 l0 -204 -60 0 -60 0 0 -45 0 -45 60 0 60 0 0 -75 0 -75 55 0 55 0 0 75 0 75 85 0 85 0 0 45 0 45 -85 0 -85 0 0 200 0 200 26 10 c14 6 52 10 85 10 l59 0 0 45 0 45 -97 0 c-79 0 -104 -4 -129 -19z"/>
 <path d="M6139 6157 c-48 -32 -59 -61 -59 -152 0 -94 18 -138 69 -172 30 -20 46 -23 142 -23 l109 0 0 -41 c0 -22 -5 -49 -10 -59 -15 -27 -71 -40 -177 -40 l-93 0 0 -46 0 -45 144 3 c157 3 173 8 220 72 19 25 21 44 24 222 l4 196 29 10 c26 9 29 14 29 54 l0 44 -48 0 c-26 0 -57 -6 -68 -14 -17 -12 -22 -12 -39 0 -13 10 -51 14 -130 14 -100 0 -116 -2 -146 -23z m251 -87 c5 -8 10 -50 10 -92 l0 -78 -69 0 c-71 0 -120 12 -133 33 -4 7 -8 40 -8 75 0 56 3 64 23 72 35 15 166 7 177 -10z"/>
 <path d="M6770 6135 l0 -45 40 0 40 0 0 -210 0 -210 -40 0 -40 0 0 -45 0 -45 95 0 c59 0 95 4 95 10 0 7 6 7 19 0 11 -5 60 -10 110 -10 l91 0 0 44 0 44 -85 3 c-72 3 -88 7 -107 27 -22 22 -23 30 -26 207 l-3 185 65 0 c37 0 66 4 67 10 1 6 1 21 1 35 0 14 0 30 -1 35 -1 6 -62 10 -161 10 l-160 0 0 -45z"/>
 <path d="M7483 6161 c-30 -14 -48 -32 -64 -62 -19 -39 -21 -58 -21 -219 0 -211 10 -243 87 -280 40 -19 58 -21 154 -18 118 3 141 12 185 72 20 26 21 41 21 226 0 185 -1 200 -21 226 -45 61 -66 69 -187 72 -94 2 -119 -1 -154 -17z m239 -101 c16 -19 18 -44 18 -180 0 -200 -2 -204 -113 -205 -117 0 -117 0 -117 205 0 207 4 213 135 205 46 -3 64 -8 77 -25z"/>
 <path d="M5916 4615 c-138 -53 -329 -168 -386 -232 -47 -54 -112 -178 -130 -251 -10 -35 -21 -54 -38 -64 -41 -22 -100 -97 -118 -151 -24 -70 -24 -152 0 -205 10 -23 23 -42 28 -42 6 0 -2 -14 -16 -31 -22 -26 -26 -40 -26 -98 l0 -67 -35 4 c-39 5 -65 -11 -65 -38 0 -9 18 -60 39 -113 l39 -96 -46 -10 c-26 -5 -65 -13 -87 -16 -72 -13 -104 -51 -77 -91 4 -6 62 -39 130 -73 67 -34 122 -63 122 -66 0 -2 -27 -49 -60 -103 -33 -55 -60 -106 -60 -114 0 -8 9 -23 20 -33 20 -18 25 -18 156 0 74 10 137 15 141 12 3 -4 -2 -55 -12 -115 -29 -184 -8 -191 204 -67 80 46 148 82 152 80 3 -3 31 -47 62 -98 31 -52 63 -99 71 -106 30 -25 61 -3 141 99 43 55 81 100 84 100 4 0 53 -47 111 -105 148 -148 165 -143 195 53 10 61 20 112 22 112 3 0 68 -18 145 -40 76 -23 148 -38 159 -35 10 4 24 15 30 26 8 17 0 43 -50 148 -34 71 -61 131 -61 135 0 3 53 32 118 65 65 33 124 66 131 74 7 9 11 28 9 44 -3 25 -13 32 -107 71 -58 23 -106 44 -107 45 -1 1 15 45 36 97 46 113 48 134 15 156 -22 14 -25 24 -25 71 0 52 -23 113 -42 113 -5 0 2 19 14 43 51 97 14 255 -80 338 -25 21 -48 39 -52 39 -4 0 -19 38 -35 85 -61 188 -142 272 -380 391 -146 73 -208 86 -279 59z m217 -135 c48 -24 90 -46 92 -51 3 -4 -15 -33 -40 -63 -50 -61 -55 -84 -25 -111 29 -26 70 -5 121 61 l42 55 29 -28 c38 -36 33 -60 -22 -99 -78 -56 -99 -79 -93 -103 7 -27 38 -44 68 -37 12 3 50 26 84 51 l62 46 15 -37 c20 -48 11 -57 -83 -86 -88 -27 -113 -52 -94 -95 11 -23 16 -25 59 -21 26 3 74 16 108 30 l60 24 40 -25 c21 -13 45 -31 52 -40 29 -35 52 -98 52 -143 0 -41 -5 -54 -36 -88 l-36 -40 -588 0 -587 0 -43 46 c-41 44 -42 48 -37 94 10 83 53 148 121 182 26 14 33 13 90 -10 35 -15 82 -26 111 -26 45 -1 50 1 59 27 14 38 -4 53 -95 84 -96 32 -105 40 -89 87 6 20 13 36 16 36 2 0 34 -22 72 -50 77 -56 123 -66 142 -29 18 32 4 62 -38 86 -102 57 -126 103 -76 142 l27 21 59 -65 c63 -68 80 -76 110 -48 28 25 22 48 -27 109 -38 46 -54 74 -42 74 1 0 47 20 102 45 120 55 135 55 258 -5z m218 -939 c27 -27 29 -35 29 -100 0 -152 3 -151 -380 -151 -327 0 -344 3 -368 55 -7 14 -12 58 -12 96 0 65 2 73 29 100 l29 29 322 0 322 0 29 -29z m-910 -318 l57 -33 476 0 476 0 100 50 c55 28 100 48 100 45 0 -2 -7 -23 -16 -45 -26 -64 -15 -84 66 -116 38 -15 70 -30 70 -33 0 -4 -43 -28 -95 -54 -120 -59 -122 -64 -60 -187 25 -51 44 -94 42 -96 -2 -2 -48 9 -103 26 -54 16 -109 30 -121 30 -34 0 -50 -24 -62 -97 -24 -142 -11 -137 -110 -39 -117 117 -122 117 -221 -9 -41 -52 -78 -94 -82 -95 -3 0 -32 43 -63 95 -50 84 -60 95 -84 95 -17 0 -77 -28 -147 -69 -66 -38 -120 -68 -121 -68 0 1 5 36 12 77 30 166 27 169 -137 146 -66 -9 -122 -16 -124 -14 -1 2 18 38 43 81 59 100 56 112 -37 157 -94 45 -101 56 -48 64 78 13 93 46 58 125 -11 24 -20 45 -20 48 0 4 50 -24 151 -84z"/>
 <path d="M5685 3845 c-50 -49 -19 -125 50 -125 44 0 75 29 75 70 0 38 -39 80 -75 80 -14 0 -37 -11 -50 -25z"/>
 <path d="M6215 3845 c-50 -49 -20 -125 49 -125 40 0 76 37 76 77 0 32 -42 73 -75 73 -14 0 -37 -11 -50 -25z"/>
 </g>
<g id="layer102" fill="#70acb1" stroke="none">
 <path d="M5565 10785 c-475 -47 -889 -146 -1320 -313 -390 -152 -767 -361 -1103 -611 -273 -204 -590 -497 -789 -732 -670 -789 -1063 -1738 -1144 -2762 -15 -197 -6 -727 15 -902 27 -218 66 -431 112 -619 301 -1220 1071 -2274 2144 -2936 182 -112 561 -303 740 -373 398 -156 818 -261 1250 -313 208 -25 730 -30 945 -10 515 49 969 159 1415 343 1305 538 2326 1647 2749 2988 147 467 208 849 218 1356 8 403 -14 663 -83 1024 -279 1448 -1232 2703 -2554 3365 -559 280 -1101 434 -1735 495 -196 18 -673 18 -860 0z m875 -131 c904 -88 1735 -419 2440 -973 989 -775 1622 -1905 1765 -3150 35 -306 35 -748 0 -1056 -120 -1055 -587 -2025 -1340 -2779 -654 -656 -1496 -1106 -2405 -1285 -509 -100 -1108 -112 -1618 -31 -677 108 -1331 364 -1891 742 -776 523 -1382 1271 -1729 2133 -308 767 -406 1600 -286 2440 64 446 212 923 419 1349 507 1043 1389 1865 2465 2296 257 103 532 185 826 244 227 46 434 72 729 90 111 7 469 -5 625 -20z"/>
 <path d="M5660 10554 c-19 -2 -80 -9 -135 -15 -320 -33 -702 -117 -1000 -219 -938 -321 -1748 -941 -2303 -1760 -294 -435 -515 -923 -640 -1415 -69 -269 -109 -508 -132 -770 -13 -154 -13 -585 0 -740 80 -947 424 -1797 1028 -2536 406 -496 962 -935 1530 -1206 462 -220 935 -358 1472 -429 188 -25 717 -31 927 -10 758 73 1456 313 2073 714 626 407 1151 971 1515 1627 293 528 478 1116 547 1740 18 162 18 768 0 930 -33 300 -110 663 -197 935 -439 1368 -1528 2470 -2889 2924 -220 74 -433 128 -647 165 -324 57 -400 63 -769 66 -190 2 -361 1 -380 -1z m720 -129 c1101 -96 2112 -589 2868 -1399 573 -613 961 -1380 1116 -2206 95 -502 100 -1051 15 -1560 -160 -956 -644 -1853 -1358 -2513 -486 -450 -1037 -773 -1665 -977 -870 -281 -1869 -278 -2736 9 -858 285 -1583 796 -2135 1506 -175 225 -333 480 -469 755 -234 473 -363 914 -433 1480 -25 203 -25 750 0 962 37 312 106 633 193 894 176 534 465 1055 816 1471 794 941 1890 1497 3128 1586 135 10 505 5 660 -8z"/>
 <path d="M5744 7150 c0 -102 2 -143 3 -92 2 50 2 134 0 185 -1 50 -3 9 -3 -93z"/>
 <path d="M4714 7085 c0 -93 2 -133 3 -88 2 45 2 122 0 170 -1 48 -3 12 -3 -82z"/>
 <path d="M5482 7220 c0 -19 2 -27 5 -17 2 9 2 25 0 35 -3 9 -5 1 -5 -18z"/>
 <path d="M6714 7150 c0 -52 1 -74 3 -47 2 26 2 68 0 95 -2 26 -3 4 -3 -48z"/>
 <path d="M4954 7055 c0 -77 2 -107 3 -67 2 40 2 103 0 140 -2 37 -3 4 -3 -73z"/>
 <path d="M6252 7000 c0 -19 2 -27 5 -17 2 9 2 25 0 35 -3 9 -5 1 -5 -18z"/>
 <path d="M4314 5985 c0 -110 2 -156 3 -103 2 53 2 143 0 200 -1 57 -3 13 -3 -97z"/>
 <path d="M6854 5880 c0 -118 2 -167 3 -107 2 59 2 155 0 215 -1 59 -3 10 -3 -108z"/>
 <path d="M6183 6000 c0 -25 2 -35 4 -22 2 12 2 32 0 45 -2 12 -4 2 -4 -23z"/>
 <path d="M4904 5880 c0 -85 2 -120 3 -77 2 42 2 112 0 155 -1 42 -3 7 -3 -78z"/>
 <path d="M7504 5880 c0 -85 2 -120 3 -77 2 42 2 112 0 155 -1 42 -3 7 -3 -78z"/>
 <path d="M5473 5625 c0 -27 2 -38 4 -22 2 15 2 37 0 50 -2 12 -4 0 -4 -28z"/>
 <path d="M6123 5625 c0 -27 2 -38 4 -22 2 15 2 37 0 50 -2 12 -4 0 -4 -28z"/>
 <path d="M6670 4025 c19 -19 36 -35 39 -35 3 0 -10 16 -29 35 -19 19 -36 35 -39 35 -3 0 10 -16 29 -35z"/>
 <path d="M5379 3708 l35 -38 590 2 591 3 -590 2 -589 3 -36 33 -35 32 34 -37z"/>
 <path d="M6255 2670 c49 -49 92 -90 95 -90 2 0 -36 41 -85 90 -49 50 -92 90 -95 90 -2 0 36 -40 85 -90z"/>
 </g>

</svg>