<svg xmlns="http://www.w3.org/2000/svg" xmlns:xlink="http://www.w3.org/1999/xlink" width="158pt" height="29pt" viewBox="0 0 158 29"><defs><symbol overflow="visible" id="a"><path d="M4.25-8.078c.438-.188 1.734-1 1.734-1.516 0-.265-.234-.265-.453-.265-1.25 0-4.86 1.593-4.86 5.28C.672-1.921 3.657.813 8.157.813c6.016 0 12.985-4.171 12.985-9.187 0-3.516-3.688-5.203-6.672-6.531-2.578-1.188-4.281-2.703-4.281-4.797 0-.781.328-2.219 1.468-3.219 1.11-.953 3.188-1.062 3.703-1.062.407 0 1.954.03 3.532.734.703.328 1.672.781 1.672 2.36 0 .515-.047.703-.157 1.109-.031.11-.078.265-.078.375 0 .25.235.25.375.25.485 0 1.36-.36 2.11-1 .468-.36.875-.844.875-2.282 0-1.812-.954-2.328-1.954-2.765-1.734-.813-3.422-.813-3.953-.813-4.828 0-10.734 3.688-10.734 7.891 0 3.11 3.219 4.578 4.984 5.36 2.625 1.171 5.985 2.874 5.985 5.968 0 2.484-1.813 5.578-7.422 5.578-3.766 0-6.797-2.437-6.797-4.937 0-.672.187-1.328.453-1.922zm0 0"/></symbol><symbol overflow="visible" id="b"><path d="M28.672-17.781c0-4.688-2.063-8.235-6.563-8.235-3.843 0-7.093 3.094-7.343 3.313-2.954 2.922-4.063 6.25-4.063 6.312 0 .22.188.266.375.266.688 0 1.281-.375 1.844-.781.656-.485.703-.594 1.11-1.438.327-.734 1.171-2.547 2.546-4.093.875-1 1.61-1.547 3.094-1.547 3.578 0 5.875 2.953 5.875 7.78 0 7.532-5.36 14.985-12.188 14.985-5.234 0-8.125-4.172-8.125-9.453 0-5.015 2.594-10.547 7.985-13.719.36-.218 1.469-.89 1.469-1.375 0-.25-.297-.25-.376-.25-1.28 0-12.203 5.86-12.203 16.938 0 5.172 2.688 9.89 8.813 9.89 7.203 0 17.75-7.234 17.75-18.593zm0 0"/></symbol><symbol overflow="visible" id="c"><path d="M10.328-25.063c.078-.406.078-.484.078-.593 0-.25-.078-.36-.406-.36-.406 0-1.516.547-2.25.922-1.703.844-3.094 1.547-3.094 2.219 0 .219.25.219.407.219.437 0 1.39-.516 2.093-.86C6.72-19.89 5.828-15.172 5.172-12 3.797-5.719 3.094-3.469 1.297.11c-.188.328-.188.406-.188.437 0 .265.297.265.36.265.593 0 2.14-.671 2.734-1.703.484-.843 1.89-3.53 3-7.812.813-3.188 2.203-8.016 4.828-11.813 1.703-2.406 3.25-3.515 5.578-3.515 1.985 0 3.797 1.297 3.797 3.25 0 3.25-3.5 4.437-7.343 5.718-.438.157-2.985 1.032-2.985 1.954 0 .234.25.265.36.265.156 0 1-.14 1.78-.14 3.72 0 6.75 2.203 6.75 5.718 0 4.579-3.921 6.047-7.265 6.047-2.844 0-4.219-1.547-4.687-2.062-.157-.188-.188-.266-.485-.266-.812 0-2.703 1.14-2.703 1.813 0 .109 1.453 2.546 5.438 2.546 5.203 0 12.843-3.687 12.843-9.64 0-3.094-2.078-5.422-5.843-6.125 2.953-1.25 7.28-3.906 7.28-7.375 0-2.14-1.78-3.735-4.5-3.735-1.265 0-5.983.344-10.452 5.875zm0 0"/></symbol><symbol overflow="visible" id="d"><path d="M6.64-3.438c2-3.093 2.626-5.453 3.11-7.406 1.281-5.094 2.688-9.531 4.969-12.078.453-.484.75-.812 1.922-.812 2.547 0 2.625 2.547 2.625 3.062 0 .672-.188 1.188-.188 1.375 0 .25.219.25.266.25.578 0 1.578-.406 2.5-1.062.672-.516 1-.891 1-2.407 0-1.984-1.032-3.5-3.094-3.5-1.188 0-4.438.297-8.047 3.953-2.953 3.016-4.687 9.657-5.39 12.438-.672 2.531-.97 3.688-2.063 5.89-.266.454-1.219 2.079-1.734 2.547C1.516-.265 1.14.407 1.14.595c0 .078.078.219.328.219.156 0 .937-.141 1.89-.782.625-.36.704-.437 1.547-1.328 1.844.047 3.14.375 5.469 1.031C12.25.266 14.141.813 16.015.813c2.985 0 6.016-2.25 7.204-3.875.734-1 .953-1.922.953-2.032 0-.25-.219-.25-.25-.25-.594 0-1.485.39-2.11.844-1 .625-1.078.844-1.296 1.469-.188.594-.407.89-.547 1.11-.297.452-.328.452-.89.452-1.767 0-3.61-.562-6.048-1.218C12-2.985 9.97-3.579 8.125-3.579c-.484 0-1 .031-1.484.14zm0 0"/></symbol><symbol overflow="visible" id="e"><path d="M13.11-25.203c-4.579 0-6.579.844-7.47 1.172-3.765 1.593-4.609 4.11-4.609 4.578 0 .265.188.297.407.297.671 0 2.437-.922 2.734-1.735.437-1.406.547-1.734 3.031-2.062a29.684 29.684 0 013.719-.219h3.36c-2.329 2.25-3.391 6.188-4.72 11.516C8.485-7.312 7.641-4.422 6.126-2.47c-.375.406-.406.438-1.406.438h-2.36c-.703 0-1.109 0-2.03.562-.407.219-1.22.844-1.22 1.203 0 .235.047.266.86.266h12.61c4.327 0 7.53-3.203 7.53-4.547 0-.25-.297-.25-.406-.25-.625 0-2.36.844-2.719 1.766-.265.781-.375 1-2.218 1H7.719c2.61-2.25 3.718-5.906 4.984-10.922.985-4.031 1.875-7.61 3.39-9.86.22-.328.25-.359 1-.359h3.126c.75 0 1.078 0 2.031-.562.344-.188 1.188-.766 1.188-1.22 0-.218-.032-.25-.844-.25zm0 0"/></symbol><symbol overflow="visible" id="f"><path d="M11.297-21.188c.656 1.922 1.469 4.688 3.14 9.235 2.313 6.265 3.344 8.562 5.61 12.062.515.782.547.813.875.813.515 0 1.297-.438 1.703-.735.516-.484.547-.515.953-2.328 2.219-9.703 5.031-19.812 5.766-21.515.031-.078.765-1.485 5.312-1.547.735-.047 1.438-2 1.438-2.813 0-.593-.219-.593-.735-.593-3.687 0-5.359 1.562-5.797 2.03-1.03 1.329-1.921 4.032-3.625 10.188-1.28 4.735-2.468 9.532-3.609 14.282-2.031-3.063-3.172-5.97-4.937-10.735-1.97-5.234-3.141-9.078-4.141-12.406-.219-.734-.266-.766-.594-.766-.078 0-.812 0-1.875.875-.375.344-.406.672-.453 1.078-1.031 9.813-4.5 19.516-5.5 21.297-.281.547-.734 1.22-1.469 1.22-.375 0-1.812-.188-2.765-1.079-.188-.14-.266-.14-.297-.14-.594 0-1.36 1.843-1.36 2.734 0 1.14 2.25 1.875 3.282 1.875 2.36 0 4.234-5.203 4.828-6.907 2.406-6.671 3.547-12.171 4.25-16.125zm0 0"/></symbol></defs><use xlink:href="#a" x="1.489" y="26.712" fill="#00f"/><use xlink:href="#b" x="25.316" y="26.712" fill="red"/><use xlink:href="#c" x="49.142" y="26.712" fill="gold"/><use xlink:href="#d" x="72.968" y="26.712" fill="#00f"/><use xlink:href="#e" x="96.795" y="26.712" fill="#2e8b57"/><use xlink:href="#f" x="120.621" y="26.712" fill="red"/></svg>